<!-- Punchier metallic blue/silver + brighter contrast + slightly stronger neon/accents (no full orange takeover) -->
<svg xmlns="http://www.w3.org/2000/svg" width="512" height="512" viewBox="0 0 512 512">
  <defs>
    <!-- Brighter, punchier background -->
    <radialGradient id="bg" cx="50%" cy="34%" r="80%">
      <stop offset="0%" stop-color="#1F4A63"/>
      <stop offset="55%" stop-color="#0A1F2C"/>
      <stop offset="100%" stop-color="#040A0E"/>
    </radialGradient>

    <!-- More contrasty steel -->
    <linearGradient id="rimSteel" x1="0%" y1="0%" x2="100%" y2="100%">
      <stop offset="0%" stop-color="#FFFFFF"/>
      <stop offset="18%" stop-color="#BFE3FF"/>
      <stop offset="42%" stop-color="#3E6E86"/>
      <stop offset="70%" stop-color="#D2F0FF"/>
      <stop offset="100%" stop-color="#18313D"/>
    </linearGradient>

    <!-- Stronger blue highlight -->
    <linearGradient id="rimBlue" x1="0%" y1="0%" x2="0%" y2="100%">
      <stop offset="0%" stop-color="#22C7FF" stop-opacity="0.55"/>
      <stop offset="55%" stop-color="#22C7FF" stop-opacity="0.20"/>
      <stop offset="100%" stop-color="#22C7FF" stop-opacity="0"/>
    </linearGradient>

    <!-- Subtle rust hint overlay -->
    <linearGradient id="rustHint" x1="0%" y1="0%" x2="100%" y2="100%">
      <stop offset="0%" stop-color="#C46E2D" stop-opacity="0"/>
      <stop offset="45%" stop-color="#C46E2D" stop-opacity="0.06"/>
      <stop offset="70%" stop-color="#7A3C16" stop-opacity="0.10"/>
      <stop offset="100%" stop-color="#C46E2D" stop-opacity="0"/>
    </linearGradient>

    <!-- Shadow (slightly lighter so it doesn't muddy) -->
    <filter id="shadow" x="-25%" y="-25%" width="150%" height="150%">
      <feDropShadow dx="0" dy="10" stdDeviation="11" flood-color="#000" flood-opacity="0.45"/>
    </filter>

    <!-- Grain reduced (so it stays crisp and bright) -->
    <filter id="grain" x="-20%" y="-20%" width="140%" height="140%">
      <feTurbulence type="fractalNoise" baseFrequency="0.9" numOctaves="2" seed="5" result="n"/>
      <feColorMatrix in="n" type="matrix" values="
        1 0 0 0 0
        0 1 0 0 0
        0 0 1 0 0
        0 0 0 0.06 0" result="na"/>
      <feBlend in="na" in2="SourceGraphic" mode="multiply"/>
    </filter>

    <!-- Brick pattern: brighter stone + bluer mortar -->
    <pattern id="brickPattern" width="46" height="30" patternUnits="userSpaceOnUse">
      <rect width="46" height="30" fill="#DDEBF4"/>
      <path d="M0 0 H46 M0 15 H46 M0 30 H46" stroke="#1C4D63" stroke-width="3" opacity="0.70"/>
      <path d="M0 0 V15 M23 0 V15 M11.5 15 V15 M34.5 15 V15" stroke="#1C4D63" stroke-width="3" opacity="0.70"/>
      <rect width="46" height="30" filter="url(#grain)" opacity="0.18"/>
    </pattern>

    <!-- Punchier lighting over bricks -->
    <linearGradient id="brickLight" x1="0%" y1="0%" x2="100%" y2="100%">
      <stop offset="0%" stop-color="#FFFFFF" stop-opacity="0.68"/>
      <stop offset="40%" stop-color="#22C7FF" stop-opacity="0.26"/>
      <stop offset="100%" stop-color="#07131B" stop-opacity="0.18"/>
    </linearGradient>

    <!-- Slightly reduced rust specks -->
    <pattern id="rustSpecks" width="120" height="120" patternUnits="userSpaceOnUse">
      <circle cx="18" cy="22" r="2.0" fill="#C46E2D" opacity="0.18"/>
      <circle cx="54" cy="18" r="1.5" fill="#7A3C16" opacity="0.16"/>
      <circle cx="96" cy="44" r="1.8" fill="#C46E2D" opacity="0.14"/>
      <circle cx="70" cy="86" r="2.2" fill="#7A3C16" opacity="0.12"/>
      <circle cx="28" cy="92" r="1.6" fill="#C46E2D" opacity="0.14"/>
    </pattern>

    <!-- Steam path as a mask -->
    <mask id="steamMask">
      <rect width="512" height="512" fill="black"/>
      <g transform="translate(56 56) scale(12.5)">
        <path fill="white" d="M15.974 0c-8.401 0-15.292 6.479-15.943 14.714l8.573 3.547c0.729-0.495 1.604-0.786 2.552-0.786 0.083 0 0.167 0.005 0.25 0.005l3.813-5.521v-0.078c0-3.328 2.703-6.031 6.031-6.031s6.036 2.708 6.036 6.036c0 3.328-2.708 6.031-6.036 6.031h-0.135l-5.438 3.88c0 0.073 0.005 0.141 0.005 0.214 0 2.5-2.021 4.526-4.521 4.526-2.177 0-4.021-1.563-4.443-3.635l-6.135-2.542c1.901 6.719 8.063 11.641 15.391 11.641 8.833 0 15.995-7.161 15.995-16s-7.161-16-15.995-16zM10.052 24.281l-1.964-0.813c0.349 0.724 0.953 1.328 1.755 1.667 1.729 0.719 3.724-0.104 4.443-1.833 0.349-0.844 0.349-1.76 0.005-2.599-0.344-0.844-1-1.495-1.839-1.844-0.828-0.349-1.719-0.333-2.5-0.042l2.026 0.839c1.276 0.536 1.88 2 1.349 3.276s-2 1.88-3.276 1.349zM25.271 11.875c0-2.214-1.802-4.021-4.016-4.021-2.224 0-4.021 1.807-4.021 4.021 0 2.219 1.797 4.021 4.021 4.021 2.214 0 4.016-1.802 4.016-4.021zM18.245 11.87c0-1.672 1.349-3.021 3.016-3.021s3.026 1.349 3.026 3.021c0 1.667-1.359 3.021-3.026 3.021s-3.016-1.354-3.016-3.021z"/>
      </g>
    </mask>

    <!-- Rim scratches (a touch brighter) -->
    <pattern id="scratches" width="90" height="90" patternUnits="userSpaceOnUse">
      <path d="M12 68 L78 22" stroke="#FFFFFF" stroke-opacity="0.12" stroke-width="4" stroke-linecap="round"/>
      <path d="M6 30 L46 10" stroke="#22C7FF" stroke-opacity="0.12" stroke-width="3" stroke-linecap="round"/>
      <path d="M28 86 L86 44" stroke="#000" stroke-opacity="0.10" stroke-width="5" stroke-linecap="round"/>
    </pattern>

    <!-- Slight inner glow (makes logo pop) -->
    <filter id="innerPop" x="-30%" y="-30%" width="160%" height="160%">
      <feDropShadow dx="0" dy="0" stdDeviation="6" flood-color="#22C7FF" flood-opacity="0.22"/>
    </filter>

    <radialGradient id="vignette" cx="50%" cy="55%" r="62%">
      <stop offset="62%" stop-color="#000" stop-opacity="0"/>
      <stop offset="100%" stop-color="#000" stop-opacity="0.55"/>
    </radialGradient>
  </defs>

  <!-- Background -->
  <circle cx="256" cy="256" r="248" fill="url(#bg)"/>
  <circle cx="256" cy="256" r="248" filter="url(#grain)" opacity="0.22"/>

  <!-- Metallic porthole rim -->
  <circle cx="256" cy="256" r="220" fill="none" stroke="url(#rimSteel)" stroke-width="32" filter="url(#shadow)"/>
  <circle cx="256" cy="256" r="220" fill="none" stroke="url(#rimBlue)" stroke-width="32" opacity="0.98"/>
  <circle cx="256" cy="256" r="220" fill="none" stroke="url(#scratches)" stroke-width="32" opacity="0.90"/>
  <circle cx="256" cy="256" r="220" fill="none" stroke="url(#rustHint)" stroke-width="32" opacity="0.90"/>

  <!-- Inner edge -->
  <circle cx="256" cy="256" r="206" fill="none" stroke="#22C7FF" stroke-opacity="0.28" stroke-width="4"/>

  <!-- Steam logo: brighter texture + pop -->
  <g mask="url(#steamMask)" filter="url(#innerPop)">
    <rect width="512" height="512" fill="url(#brickPattern)"/>
    <rect width="512" height="512" fill="url(#brickLight)" opacity="0.98"/>
    <rect width="512" height="512" fill="url(#rustSpecks)" opacity="0.28"/>
    <rect width="512" height="512" fill="#FFFFFF" opacity="0.06"/>
  </g>

  <!-- Bolts (brighter steel) -->
  <g opacity="0.55">
    <circle cx="256" cy="46" r="6" fill="#EAF6FF"/>
    <circle cx="409" cy="111" r="6" fill="#EAF6FF"/>
    <circle cx="466" cy="256" r="6" fill="#EAF6FF"/>
    <circle cx="409" cy="401" r="6" fill="#EAF6FF"/>
    <circle cx="256" cy="466" r="6" fill="#EAF6FF"/>
    <circle cx="103" cy="401" r="6" fill="#EAF6FF"/>
    <circle cx="46" cy="256" r="6" fill="#EAF6FF"/>
    <circle cx="103" cy="111" r="6" fill="#EAF6FF"/>
  </g>
  <g opacity="0.09">
    <circle cx="409" cy="111" r="8" fill="#C46E2D"/>
    <circle cx="103" cy="401" r="8" fill="#7A3C16"/>
  </g>

  <!-- Outline for readability -->
  <g transform="translate(56 56) scale(12.5)">
    <path fill="none" stroke="#020405" stroke-opacity="0.48" stroke-width="0.55"
      d="M15.974 0c-8.401 0-15.292 6.479-15.943 14.714l8.573 3.547c0.729-0.495 1.604-0.786 2.552-0.786 0.083 0 0.167 0.005 0.25 0.005l3.813-5.521v-0.078c0-3.328 2.703-6.031 6.031-6.031s6.036 2.708 6.036 6.036c0 3.328-2.708 6.031-6.036 6.031h-0.135l-5.438 3.88c0 0.073 0.005 0.141 0.005 0.214 0 2.5-2.021 4.526-4.521 4.526-2.177 0-4.021-1.563-4.443-3.635l-6.135-2.542c1.901 6.719 8.063 11.641 15.391 11.641 8.833 0 15.995-7.161 15.995-16s-7.161-16-15.995-16zM10.052 24.281l-1.964-0.813c0.349 0.724 0.953 1.328 1.755 1.667 1.729 0.719 3.724-0.104 4.443-1.833 0.349-0.844 0.349-1.76 0.005-2.599-0.344-0.844-1-1.495-1.839-1.844-0.828-0.349-1.719-0.333-2.5-0.042l2.026 0.839c1.276 0.536 1.88 2 1.349 3.276s-2 1.88-3.276 1.349zM25.271 11.875c0-2.214-1.802-4.021-4.016-4.021-2.224 0-4.021 1.807-4.021 4.021 0 2.219 1.797 4.021 4.021 4.021 2.214 0 4.016-1.802 4.016-4.021zM18.245 11.87c0-1.672 1.349-3.021 3.016-3.021s3.026 1.349 3.026 3.021c0 1.667-1.359 3.021-3.026 3.021s-3.016-1.354-3.016-3.021z"/>
  </g>

  <!-- Vignette -->
  <circle cx="256" cy="256" r="248" fill="url(#vignette)"/>
</svg>